<?xml version="1.0" encoding="UTF-8" standalone="no"?>
<!-- Created with Inkscape (http://www.inkscape.org/) -->

<svg
   xmlns:dc="http://purl.org/dc/elements/1.1/"
   xmlns:cc="http://creativecommons.org/ns#"
   xmlns:rdf="http://www.w3.org/1999/02/22-rdf-syntax-ns#"
   xmlns:svg="http://www.w3.org/2000/svg"
   xmlns="http://www.w3.org/2000/svg"
   version="1.1"
   width="54"
   height="44"
   viewBox="0 0 54 44"
   id="svg2"
   xml:space="preserve"><metadata
   id="metadata321"><rdf:RDF><cc:Work
       rdf:about=""><dc:format>image/svg+xml</dc:format><dc:type
         rdf:resource="http://purl.org/dc/dcmitype/StillImage" /><dc:title></dc:title></cc:Work></rdf:RDF></metadata><defs
   id="defs319" />
<path
   d="m 16.40625,27.5625 -4.65625,2 4.3125,1.84375 5,-1.84375 -4.65625,-2 z m -7,2.5 -0.15625,9 6.8125,3 0,-9.34375 -6.65625,-2.65625 z m 14,0 -6.15625,2.34375 0,8.8125 6.15625,-2.5 0,-8.65625 z"
   id="polygon287"
   style="fill:#FFFFFF;fill-rule:nonzero" /><path
   d="m 30.75,2.0625 -4.6875,2 4.34375,1.84375 5,-1.84375 -4.65625,-2 z m -6.5,2.65625 0,9 5.8125,1.6875 0.1875,-8.1875 -6,-2.5 z m 13,0.5 -5.5,2.34375 0,8.84375 5.5,-2.5 0,-8.6875 z"
   id="polygon311"
   style="fill:#FFFFFF;fill-rule:nonzero" />
<path
   d="m 8.734375,14.7295 -4.65625,2 4.3125,1.84375 5,-1.84375 -4.65625,-2 z m -7,2.5 -0.15625,9 6.8125,3 0,-9.34375 -6.65625,-2.65625 z m 14,0 -6.15625,2.34375 0,8.8125 6.15625,-2.5 0,-8.65625 z"
   id="use3387"
   style="fill:#FFFFFF;fill-rule:nonzero" /><path
   d="m 23.73425,14.396999 -4.65625,2 4.3125,1.84375 5,-1.84375 -4.65625,-2 z m -7,2.5 -0.15625,9 6.8125,3 0,-9.34375 -6.65625,-2.65625 z m 14,0 -6.15625,2.34375 0,8.8125 6.15625,-2.5 0,-8.65625 z"
   id="use3389"
   style="fill:#FFFFFF;fill-rule:nonzero" /><path
   d="m 45.401375,2.0625 -4.65625,2 4.3125,1.84375 5,-1.84375 -4.65625,-2 z m -7,2.5 -0.15625,9 6.8125,3 0,-9.34375 -6.65625,-2.65625 z m 14,0 -6.15625,2.34375 0,8.8125 6.15625,-2.5 0,-8.65625 z"
   id="use3391"
   style="fill:#FFFFFF;fill-rule:nonzero" /></svg>
