<?xml version="1.0" encoding="utf-8"?>
<?xml-stylesheet href="lib/svg.css" type="text/css"?>
<!DOCTYPE svg PUBLIC "-//W3C//DTD SVG 1.1//EN" "http://www.w3.org/Graphics/SVG/1.1/DTD/svg11.dtd">
<svg version="1.1" id="Layer_1" xmlns="http://www.w3.org/2000/svg" xmlns:xlink="http://www.w3.org/1999/xlink" x="0px" y="0px"
	 width="360px" height="360px" viewBox="76 113 360 380" enable-background="new 76 113 360 380" xml:space="preserve">
<g>
	<path fill="#FFFFFF" d="M200.662,266.676H256v-42.92h-59.169L200.662,266.676z M88.686,111.982l30.47,341.74l136.762,37.966
		l136.891-37.948l30.507-341.758H88.686z M366.694,431.981L256,462.668v-43.494l-0.067,0.02l-85.858-23.835l-6.004-67.298h42.075
		l3.116,34.914l46.68,12.607l0.059-0.019V308.59h-93.669l-11.306-126.749H256v-41.914h136.766L366.694,431.981z"/>
	<path opacity="0.0" fill="#FFFFFF" d="M307.592,308.59H256v66.974l46.728-12.613L307.592,308.59z M256,139.927v41.914h104.975
		l-3.754,41.915H256v42.92h97.406l-11.499,128.683L256,419.174v43.494l110.694-30.687l26.071-292.055H256z"/>

	<path fill="#FFFFFF" d="M256,181.841h104.975
		l-3.754,41.915H256z" />
		<path fill="#FFFFFF" d="M256,419.174,v-41.915l46.728-12.613L307.592,308.59H256v-41.915h97.406l-11.499,128.683L256,419.174z" />
</g>
</svg>
